<svg width="24" height="25" fill="none" xmlns="http://www.w3.org/2000/svg"><path d="M18 3.258H6c-1.7 0-3 1.292-3 2.98v11.925c0 1.69 1.3 2.981 3 2.981h12c1.7 0 3-1.292 3-2.981V6.239c0-1.69-1.3-2.981-3-2.981ZM12 9.22c1.7 0 3 1.292 3 2.98 0 1.69-1.3 2.982-3 2.982s-3-1.292-3-2.981c0-1.69 1.3-2.981 3-2.981Zm3.8-1.987c0-.696.6-1.193 1.2-1.193s1.2.596 1.2 1.193c0 .596-.5 1.192-1.2 1.192s-1.2-.497-1.2-1.192ZM18 19.157H6c-.6 0-1-.398-1-.994v-5.962h2c0 2.782 2.2 4.968 5 4.968s5-2.186 5-4.968h2v5.962c0 .596-.4.994-1 .994Z" fill="#4F4F4F"/></svg>